<mxfile host="app.diagrams.net" modified="2024-05-22T15:58:07.493Z" agent="Mozilla/5.0 (X11; Linux x86_64; rv:109.0) Gecko/20100101 Firefox/115.0" etag="4JE0Y5i-Mo1tLPjYVPLf" version="24.4.4" type="github">
  <diagram name="Page-1" id="z955y7qxM9y07f499SiW">
    <mxGraphModel dx="474" dy="1964" grid="1" gridSize="10" guides="1" tooltips="1" connect="1" arrows="1" fold="1" page="1" pageScale="1" pageWidth="827" pageHeight="1169" math="0" shadow="0">
      <root>
        <mxCell id="0" />
        <mxCell id="1" parent="0" />
        <mxCell id="O_epTvdXiK4w9YHE_06F-2" style="edgeStyle=orthogonalEdgeStyle;rounded=0;orthogonalLoop=1;jettySize=auto;html=1;startArrow=classic;startFill=1;endArrow=none;endFill=0;" edge="1" parent="1" source="O_epTvdXiK4w9YHE_06F-1">
          <mxGeometry relative="1" as="geometry">
            <mxPoint x="350" y="90" as="targetPoint" />
          </mxGeometry>
        </mxCell>
        <mxCell id="O_epTvdXiK4w9YHE_06F-5" style="edgeStyle=orthogonalEdgeStyle;rounded=0;orthogonalLoop=1;jettySize=auto;html=1;entryX=0.5;entryY=0;entryDx=0;entryDy=0;" edge="1" parent="1" source="O_epTvdXiK4w9YHE_06F-1" target="O_epTvdXiK4w9YHE_06F-4">
          <mxGeometry relative="1" as="geometry" />
        </mxCell>
        <mxCell id="O_epTvdXiK4w9YHE_06F-1" value="" style="rounded=0;whiteSpace=wrap;html=1;fillColor=#d5e8d4;strokeColor=#82b366;" vertex="1" parent="1">
          <mxGeometry x="290" y="160" width="120" height="60" as="geometry" />
        </mxCell>
        <mxCell id="O_epTvdXiK4w9YHE_06F-3" value="rstn" style="text;html=1;align=center;verticalAlign=middle;resizable=0;points=[];autosize=1;strokeColor=none;fillColor=none;" vertex="1" parent="1">
          <mxGeometry x="360" y="88" width="40" height="30" as="geometry" />
        </mxCell>
        <mxCell id="O_epTvdXiK4w9YHE_06F-6" style="edgeStyle=orthogonalEdgeStyle;rounded=0;orthogonalLoop=1;jettySize=auto;html=1;" edge="1" parent="1" source="O_epTvdXiK4w9YHE_06F-4">
          <mxGeometry relative="1" as="geometry">
            <mxPoint x="350" y="130" as="targetPoint" />
            <Array as="points">
              <mxPoint x="490" y="310" />
              <mxPoint x="490" y="130" />
            </Array>
          </mxGeometry>
        </mxCell>
        <mxCell id="O_epTvdXiK4w9YHE_06F-10" style="edgeStyle=orthogonalEdgeStyle;rounded=0;orthogonalLoop=1;jettySize=auto;html=1;entryX=0.5;entryY=0;entryDx=0;entryDy=0;" edge="1" parent="1" source="O_epTvdXiK4w9YHE_06F-4" target="O_epTvdXiK4w9YHE_06F-8">
          <mxGeometry relative="1" as="geometry" />
        </mxCell>
        <mxCell id="O_epTvdXiK4w9YHE_06F-4" value="sreg = 0xAA" style="shape=hexagon;perimeter=hexagonPerimeter2;whiteSpace=wrap;html=1;fixedSize=1;fillColor=#ffe6cc;strokeColor=#d79b00;" vertex="1" parent="1">
          <mxGeometry x="290" y="270" width="120" height="80" as="geometry" />
        </mxCell>
        <mxCell id="O_epTvdXiK4w9YHE_06F-7" value="F" style="text;html=1;align=center;verticalAlign=middle;resizable=0;points=[];autosize=1;strokeColor=none;fillColor=none;" vertex="1" parent="1">
          <mxGeometry x="405" y="278" width="30" height="30" as="geometry" />
        </mxCell>
        <mxCell id="O_epTvdXiK4w9YHE_06F-12" style="edgeStyle=orthogonalEdgeStyle;rounded=0;orthogonalLoop=1;jettySize=auto;html=1;entryX=0.5;entryY=0;entryDx=0;entryDy=0;" edge="1" parent="1" source="O_epTvdXiK4w9YHE_06F-8" target="O_epTvdXiK4w9YHE_06F-9">
          <mxGeometry relative="1" as="geometry" />
        </mxCell>
        <mxCell id="O_epTvdXiK4w9YHE_06F-8" value="count &amp;lt;= count + 1" style="rounded=0;whiteSpace=wrap;html=1;fillColor=#d5e8d4;strokeColor=#82b366;" vertex="1" parent="1">
          <mxGeometry x="290" y="470" width="120" height="60" as="geometry" />
        </mxCell>
        <mxCell id="O_epTvdXiK4w9YHE_06F-11" style="edgeStyle=orthogonalEdgeStyle;rounded=0;orthogonalLoop=1;jettySize=auto;html=1;" edge="1" parent="1" source="O_epTvdXiK4w9YHE_06F-9">
          <mxGeometry relative="1" as="geometry">
            <mxPoint x="350" y="430" as="targetPoint" />
            <Array as="points">
              <mxPoint x="470" y="650" />
              <mxPoint x="470" y="430" />
            </Array>
          </mxGeometry>
        </mxCell>
        <mxCell id="O_epTvdXiK4w9YHE_06F-16" style="edgeStyle=orthogonalEdgeStyle;rounded=0;orthogonalLoop=1;jettySize=auto;html=1;entryX=0.5;entryY=0;entryDx=0;entryDy=0;" edge="1" parent="1" source="O_epTvdXiK4w9YHE_06F-9" target="O_epTvdXiK4w9YHE_06F-14">
          <mxGeometry relative="1" as="geometry" />
        </mxCell>
        <mxCell id="O_epTvdXiK4w9YHE_06F-9" value="count = 6" style="shape=hexagon;perimeter=hexagonPerimeter2;whiteSpace=wrap;html=1;fixedSize=1;fillColor=#ffe6cc;strokeColor=#d79b00;" vertex="1" parent="1">
          <mxGeometry x="290" y="610" width="120" height="80" as="geometry" />
        </mxCell>
        <mxCell id="O_epTvdXiK4w9YHE_06F-13" value="&lt;div&gt;Default:&lt;/div&gt;&lt;div&gt;count &amp;lt;= 0&lt;br&gt;&lt;/div&gt;&lt;div&gt;&lt;br&gt;&lt;/div&gt;&lt;div&gt;tvalid &amp;lt;= 0&lt;br&gt;&lt;/div&gt;" style="text;html=1;align=center;verticalAlign=middle;resizable=0;points=[];autosize=1;strokeColor=none;fillColor=none;" vertex="1" parent="1">
          <mxGeometry x="30" y="148" width="80" height="70" as="geometry" />
        </mxCell>
        <mxCell id="O_epTvdXiK4w9YHE_06F-20" value="" style="edgeStyle=orthogonalEdgeStyle;rounded=0;orthogonalLoop=1;jettySize=auto;html=1;" edge="1" parent="1" source="O_epTvdXiK4w9YHE_06F-14" target="O_epTvdXiK4w9YHE_06F-19">
          <mxGeometry relative="1" as="geometry">
            <Array as="points">
              <mxPoint x="430" y="780" />
              <mxPoint x="430" y="840" />
              <mxPoint x="350" y="840" />
            </Array>
          </mxGeometry>
        </mxCell>
        <mxCell id="O_epTvdXiK4w9YHE_06F-23" style="edgeStyle=orthogonalEdgeStyle;rounded=0;orthogonalLoop=1;jettySize=auto;html=1;" edge="1" parent="1" source="O_epTvdXiK4w9YHE_06F-14">
          <mxGeometry relative="1" as="geometry">
            <mxPoint x="350" y="130" as="targetPoint" />
            <Array as="points">
              <mxPoint x="240" y="780" />
              <mxPoint x="240" y="130" />
            </Array>
          </mxGeometry>
        </mxCell>
        <mxCell id="O_epTvdXiK4w9YHE_06F-14" value="sreg(6 downto 0) &amp;amp; sdata = 0xFF" style="shape=hexagon;perimeter=hexagonPerimeter2;whiteSpace=wrap;html=1;fixedSize=1;fillColor=#ffe6cc;strokeColor=#d79b00;" vertex="1" parent="1">
          <mxGeometry x="290" y="740" width="120" height="80" as="geometry" />
        </mxCell>
        <mxCell id="O_epTvdXiK4w9YHE_06F-15" value="F" style="text;html=1;align=center;verticalAlign=middle;resizable=0;points=[];autosize=1;strokeColor=none;fillColor=none;" vertex="1" parent="1">
          <mxGeometry x="410" y="620" width="30" height="30" as="geometry" />
        </mxCell>
        <mxCell id="O_epTvdXiK4w9YHE_06F-21" style="edgeStyle=orthogonalEdgeStyle;rounded=0;orthogonalLoop=1;jettySize=auto;html=1;" edge="1" parent="1" source="O_epTvdXiK4w9YHE_06F-19">
          <mxGeometry relative="1" as="geometry">
            <mxPoint x="470" y="650" as="targetPoint" />
          </mxGeometry>
        </mxCell>
        <mxCell id="O_epTvdXiK4w9YHE_06F-19" value="&lt;div&gt;tvalid&lt;/div&gt;&lt;div&gt;tdata &amp;lt;= sreg&lt;br&gt;&lt;/div&gt;" style="whiteSpace=wrap;html=1;fillColor=#d5e8d4;strokeColor=#82b366;" vertex="1" parent="1">
          <mxGeometry x="290" y="930" width="120" height="60" as="geometry" />
        </mxCell>
        <mxCell id="O_epTvdXiK4w9YHE_06F-22" value="F" style="text;html=1;align=center;verticalAlign=middle;resizable=0;points=[];autosize=1;strokeColor=none;fillColor=none;" vertex="1" parent="1">
          <mxGeometry x="405" y="750" width="30" height="30" as="geometry" />
        </mxCell>
        <mxCell id="O_epTvdXiK4w9YHE_06F-24" value="" style="swimlane;startSize=0;dashed=1;" vertex="1" parent="1">
          <mxGeometry x="250" y="880" width="200" height="130" as="geometry" />
        </mxCell>
        <mxCell id="O_epTvdXiK4w9YHE_06F-32" value="s_valid" style="text;html=1;align=center;verticalAlign=middle;resizable=0;points=[];autosize=1;strokeColor=none;fillColor=none;" vertex="1" parent="O_epTvdXiK4w9YHE_06F-24">
          <mxGeometry x="10" width="60" height="30" as="geometry" />
        </mxCell>
        <mxCell id="O_epTvdXiK4w9YHE_06F-25" value="T" style="text;html=1;align=center;verticalAlign=middle;resizable=0;points=[];autosize=1;strokeColor=none;fillColor=none;" vertex="1" parent="1">
          <mxGeometry x="250" y="750" width="30" height="30" as="geometry" />
        </mxCell>
        <mxCell id="O_epTvdXiK4w9YHE_06F-26" value="T" style="text;html=1;align=center;verticalAlign=middle;resizable=0;points=[];autosize=1;strokeColor=none;fillColor=none;" vertex="1" parent="1">
          <mxGeometry x="350" y="690" width="30" height="30" as="geometry" />
        </mxCell>
        <mxCell id="O_epTvdXiK4w9YHE_06F-27" value="T" style="text;html=1;align=center;verticalAlign=middle;resizable=0;points=[];autosize=1;strokeColor=none;fillColor=none;" vertex="1" parent="1">
          <mxGeometry x="350" y="350" width="30" height="30" as="geometry" />
        </mxCell>
        <mxCell id="O_epTvdXiK4w9YHE_06F-28" value="" style="swimlane;startSize=0;dashed=1;" vertex="1" parent="1">
          <mxGeometry x="250" y="440" width="200" height="390" as="geometry" />
        </mxCell>
        <mxCell id="O_epTvdXiK4w9YHE_06F-31" value="s_count" style="text;html=1;align=center;verticalAlign=middle;resizable=0;points=[];autosize=1;strokeColor=none;fillColor=none;" vertex="1" parent="O_epTvdXiK4w9YHE_06F-28">
          <mxGeometry x="10" width="70" height="30" as="geometry" />
        </mxCell>
        <mxCell id="O_epTvdXiK4w9YHE_06F-29" value="" style="swimlane;startSize=0;dashed=1;" vertex="1" parent="1">
          <mxGeometry x="250" y="140" width="200" height="260" as="geometry" />
        </mxCell>
        <mxCell id="O_epTvdXiK4w9YHE_06F-30" value="s_idle" style="text;html=1;align=center;verticalAlign=middle;resizable=0;points=[];autosize=1;strokeColor=none;fillColor=none;" vertex="1" parent="O_epTvdXiK4w9YHE_06F-29">
          <mxGeometry x="20" width="50" height="30" as="geometry" />
        </mxCell>
        <mxCell id="O_epTvdXiK4w9YHE_06F-33" value="&lt;font style=&quot;font-size: 20px;&quot;&gt;2023 - FSM&lt;br&gt;&lt;/font&gt;" style="text;html=1;align=center;verticalAlign=middle;resizable=0;points=[];autosize=1;strokeColor=none;fillColor=none;" vertex="1" parent="1">
          <mxGeometry x="295" y="20" width="130" height="40" as="geometry" />
        </mxCell>
        <mxCell id="O_epTvdXiK4w9YHE_06F-34" value="&lt;font style=&quot;font-size: 20px;&quot;&gt;2022 - FSM&lt;br&gt;&lt;/font&gt;" style="text;html=1;align=center;verticalAlign=middle;resizable=0;points=[];autosize=1;strokeColor=none;fillColor=none;" vertex="1" parent="1">
          <mxGeometry x="690" y="20" width="130" height="40" as="geometry" />
        </mxCell>
        <mxCell id="O_epTvdXiK4w9YHE_06F-36" style="edgeStyle=orthogonalEdgeStyle;rounded=0;orthogonalLoop=1;jettySize=auto;html=1;startArrow=classic;startFill=1;endArrow=none;endFill=0;" edge="1" parent="1" source="O_epTvdXiK4w9YHE_06F-35">
          <mxGeometry relative="1" as="geometry">
            <mxPoint x="780" y="80" as="targetPoint" />
          </mxGeometry>
        </mxCell>
        <mxCell id="O_epTvdXiK4w9YHE_06F-38" style="edgeStyle=orthogonalEdgeStyle;rounded=0;orthogonalLoop=1;jettySize=auto;html=1;entryX=0.5;entryY=0;entryDx=0;entryDy=0;" edge="1" parent="1" source="O_epTvdXiK4w9YHE_06F-35" target="O_epTvdXiK4w9YHE_06F-37">
          <mxGeometry relative="1" as="geometry" />
        </mxCell>
        <mxCell id="O_epTvdXiK4w9YHE_06F-35" value="" style="rounded=0;whiteSpace=wrap;html=1;fillColor=#d5e8d4;strokeColor=#82b366;" vertex="1" parent="1">
          <mxGeometry x="720" y="160" width="120" height="60" as="geometry" />
        </mxCell>
        <mxCell id="O_epTvdXiK4w9YHE_06F-40" style="edgeStyle=orthogonalEdgeStyle;rounded=0;orthogonalLoop=1;jettySize=auto;html=1;" edge="1" parent="1" source="O_epTvdXiK4w9YHE_06F-37">
          <mxGeometry relative="1" as="geometry">
            <mxPoint x="780" y="120" as="targetPoint" />
            <Array as="points">
              <mxPoint x="930" y="310" />
              <mxPoint x="930" y="120" />
            </Array>
          </mxGeometry>
        </mxCell>
        <mxCell id="O_epTvdXiK4w9YHE_06F-43" value="" style="edgeStyle=orthogonalEdgeStyle;rounded=0;orthogonalLoop=1;jettySize=auto;html=1;" edge="1" parent="1" source="O_epTvdXiK4w9YHE_06F-37" target="O_epTvdXiK4w9YHE_06F-42">
          <mxGeometry relative="1" as="geometry" />
        </mxCell>
        <mxCell id="O_epTvdXiK4w9YHE_06F-37" value="x" style="shape=hexagon;perimeter=hexagonPerimeter2;whiteSpace=wrap;html=1;fixedSize=1;fillColor=#ffe6cc;strokeColor=#d79b00;" vertex="1" parent="1">
          <mxGeometry x="720" y="270" width="120" height="80" as="geometry" />
        </mxCell>
        <mxCell id="O_epTvdXiK4w9YHE_06F-39" value="" style="endArrow=none;html=1;rounded=0;" edge="1" parent="1">
          <mxGeometry width="50" height="50" relative="1" as="geometry">
            <mxPoint x="540" y="1061.1764705882354" as="sourcePoint" />
            <mxPoint x="540" y="20" as="targetPoint" />
          </mxGeometry>
        </mxCell>
        <mxCell id="O_epTvdXiK4w9YHE_06F-45" value="" style="edgeStyle=orthogonalEdgeStyle;rounded=0;orthogonalLoop=1;jettySize=auto;html=1;" edge="1" parent="1" source="O_epTvdXiK4w9YHE_06F-42" target="O_epTvdXiK4w9YHE_06F-44">
          <mxGeometry relative="1" as="geometry" />
        </mxCell>
        <mxCell id="O_epTvdXiK4w9YHE_06F-42" value="z&lt;br&gt;&lt;div&gt;count &amp;lt;- N&lt;br&gt;&lt;/div&gt;" style="whiteSpace=wrap;html=1;fillColor=#d5e8d4;strokeColor=#82b366;" vertex="1" parent="1">
          <mxGeometry x="720" y="440" width="120" height="60" as="geometry" />
        </mxCell>
        <mxCell id="O_epTvdXiK4w9YHE_06F-48" style="edgeStyle=orthogonalEdgeStyle;rounded=0;orthogonalLoop=1;jettySize=auto;html=1;" edge="1" parent="1" source="O_epTvdXiK4w9YHE_06F-44">
          <mxGeometry relative="1" as="geometry">
            <mxPoint x="780" y="400" as="targetPoint" />
            <Array as="points">
              <mxPoint x="670" y="610" />
              <mxPoint x="670" y="400" />
            </Array>
          </mxGeometry>
        </mxCell>
        <mxCell id="O_epTvdXiK4w9YHE_06F-50" value="" style="edgeStyle=orthogonalEdgeStyle;rounded=0;orthogonalLoop=1;jettySize=auto;html=1;" edge="1" parent="1" source="O_epTvdXiK4w9YHE_06F-44" target="O_epTvdXiK4w9YHE_06F-49">
          <mxGeometry relative="1" as="geometry">
            <Array as="points">
              <mxPoint x="870" y="610" />
              <mxPoint x="870" y="690" />
              <mxPoint x="780" y="690" />
            </Array>
          </mxGeometry>
        </mxCell>
        <mxCell id="O_epTvdXiK4w9YHE_06F-44" value="x" style="shape=hexagon;perimeter=hexagonPerimeter2;whiteSpace=wrap;html=1;fixedSize=1;fillColor=#ffe6cc;strokeColor=#d79b00;" vertex="1" parent="1">
          <mxGeometry x="720" y="570" width="120" height="80" as="geometry" />
        </mxCell>
        <mxCell id="O_epTvdXiK4w9YHE_06F-46" value="&lt;div&gt;Default:&lt;/div&gt;&lt;div&gt;z &amp;lt;= &#39;0&#39;&lt;br&gt;&lt;/div&gt;" style="text;html=1;align=center;verticalAlign=middle;resizable=0;points=[];autosize=1;strokeColor=none;fillColor=none;" vertex="1" parent="1">
          <mxGeometry x="560" y="123" width="60" height="40" as="geometry" />
        </mxCell>
        <mxCell id="O_epTvdXiK4w9YHE_06F-58" value="" style="edgeStyle=orthogonalEdgeStyle;rounded=0;orthogonalLoop=1;jettySize=auto;html=1;" edge="1" parent="1" source="O_epTvdXiK4w9YHE_06F-49" target="O_epTvdXiK4w9YHE_06F-57">
          <mxGeometry relative="1" as="geometry" />
        </mxCell>
        <mxCell id="O_epTvdXiK4w9YHE_06F-49" value="&lt;div&gt;z&lt;/div&gt;&lt;div&gt;count &amp;lt;- count + 1&lt;br&gt;&lt;/div&gt;" style="whiteSpace=wrap;html=1;fillColor=#d5e8d4;strokeColor=#82b366;" vertex="1" parent="1">
          <mxGeometry x="720" y="720" width="120" height="60" as="geometry" />
        </mxCell>
        <mxCell id="O_epTvdXiK4w9YHE_06F-52" value="" style="swimlane;startSize=0;dashed=1;" vertex="1" parent="1">
          <mxGeometry x="680" y="700" width="290" height="400" as="geometry" />
        </mxCell>
        <mxCell id="O_epTvdXiK4w9YHE_06F-60" value="" style="edgeStyle=orthogonalEdgeStyle;rounded=0;orthogonalLoop=1;jettySize=auto;html=1;" edge="1" parent="O_epTvdXiK4w9YHE_06F-52" source="O_epTvdXiK4w9YHE_06F-57" target="O_epTvdXiK4w9YHE_06F-59">
          <mxGeometry relative="1" as="geometry">
            <Array as="points">
              <mxPoint x="220" y="220" />
            </Array>
          </mxGeometry>
        </mxCell>
        <mxCell id="O_epTvdXiK4w9YHE_06F-63" style="edgeStyle=orthogonalEdgeStyle;rounded=0;orthogonalLoop=1;jettySize=auto;html=1;" edge="1" parent="O_epTvdXiK4w9YHE_06F-52" source="O_epTvdXiK4w9YHE_06F-57">
          <mxGeometry relative="1" as="geometry">
            <mxPoint x="-10" y="-90" as="targetPoint" />
          </mxGeometry>
        </mxCell>
        <mxCell id="O_epTvdXiK4w9YHE_06F-57" value="x" style="shape=hexagon;perimeter=hexagonPerimeter2;whiteSpace=wrap;html=1;fixedSize=1;fillColor=#ffe6cc;strokeColor=#d79b00;" vertex="1" parent="O_epTvdXiK4w9YHE_06F-52">
          <mxGeometry x="40" y="180" width="120" height="80" as="geometry" />
        </mxCell>
        <mxCell id="O_epTvdXiK4w9YHE_06F-61" style="edgeStyle=orthogonalEdgeStyle;rounded=0;orthogonalLoop=1;jettySize=auto;html=1;" edge="1" parent="O_epTvdXiK4w9YHE_06F-52" source="O_epTvdXiK4w9YHE_06F-59">
          <mxGeometry relative="1" as="geometry">
            <mxPoint x="100" y="-580" as="targetPoint" />
            <Array as="points">
              <mxPoint x="-40" y="330" />
              <mxPoint x="-40" y="-580" />
            </Array>
          </mxGeometry>
        </mxCell>
        <mxCell id="O_epTvdXiK4w9YHE_06F-64" style="edgeStyle=orthogonalEdgeStyle;rounded=0;orthogonalLoop=1;jettySize=auto;html=1;" edge="1" parent="O_epTvdXiK4w9YHE_06F-52" source="O_epTvdXiK4w9YHE_06F-59">
          <mxGeometry relative="1" as="geometry">
            <mxPoint x="190" y="-30" as="targetPoint" />
            <Array as="points">
              <mxPoint x="310" y="330" />
              <mxPoint x="310" y="-30" />
            </Array>
          </mxGeometry>
        </mxCell>
        <mxCell id="O_epTvdXiK4w9YHE_06F-59" value="count &amp;lt; N - 2" style="shape=hexagon;perimeter=hexagonPerimeter2;whiteSpace=wrap;html=1;fixedSize=1;fillColor=#ffe6cc;strokeColor=#d79b00;" vertex="1" parent="O_epTvdXiK4w9YHE_06F-52">
          <mxGeometry x="160" y="290" width="120" height="80" as="geometry" />
        </mxCell>
        <mxCell id="O_epTvdXiK4w9YHE_06F-53" value="" style="swimlane;startSize=0;dashed=1;" vertex="1" parent="1">
          <mxGeometry x="680" y="420" width="200" height="240" as="geometry" />
        </mxCell>
        <mxCell id="O_epTvdXiK4w9YHE_06F-54" value="" style="swimlane;startSize=0;dashed=1;" vertex="1" parent="1">
          <mxGeometry x="680" y="140" width="200" height="220" as="geometry" />
        </mxCell>
        <mxCell id="O_epTvdXiK4w9YHE_06F-65" value="" style="endArrow=none;html=1;rounded=0;" edge="1" parent="1">
          <mxGeometry width="50" height="50" relative="1" as="geometry">
            <mxPoint x="1070" y="1041.18" as="sourcePoint" />
            <mxPoint x="1070" y="0.003529411764645829" as="targetPoint" />
          </mxGeometry>
        </mxCell>
        <mxCell id="O_epTvdXiK4w9YHE_06F-66" value="&lt;font style=&quot;font-size: 20px;&quot;&gt;2021 - FSM&lt;br&gt;&lt;/font&gt;" style="text;html=1;align=center;verticalAlign=middle;resizable=0;points=[];autosize=1;strokeColor=none;fillColor=none;" vertex="1" parent="1">
          <mxGeometry x="1230" y="50" width="130" height="40" as="geometry" />
        </mxCell>
        <mxCell id="O_epTvdXiK4w9YHE_06F-68" value="" style="edgeStyle=orthogonalEdgeStyle;rounded=0;orthogonalLoop=1;jettySize=auto;html=1;startArrow=classic;startFill=1;endArrow=none;endFill=0;" edge="1" parent="1" source="O_epTvdXiK4w9YHE_06F-67" target="O_epTvdXiK4w9YHE_06F-66">
          <mxGeometry relative="1" as="geometry" />
        </mxCell>
        <mxCell id="O_epTvdXiK4w9YHE_06F-70" value="" style="edgeStyle=orthogonalEdgeStyle;rounded=0;orthogonalLoop=1;jettySize=auto;html=1;" edge="1" parent="1" source="O_epTvdXiK4w9YHE_06F-67" target="O_epTvdXiK4w9YHE_06F-69">
          <mxGeometry relative="1" as="geometry" />
        </mxCell>
        <mxCell id="O_epTvdXiK4w9YHE_06F-67" value="" style="rounded=0;whiteSpace=wrap;html=1;fillColor=#d5e8d4;strokeColor=#82b366;" vertex="1" parent="1">
          <mxGeometry x="1235" y="140" width="120" height="60" as="geometry" />
        </mxCell>
        <mxCell id="O_epTvdXiK4w9YHE_06F-71" style="edgeStyle=orthogonalEdgeStyle;rounded=0;orthogonalLoop=1;jettySize=auto;html=1;" edge="1" parent="1" source="O_epTvdXiK4w9YHE_06F-69">
          <mxGeometry relative="1" as="geometry">
            <mxPoint x="1290" y="100" as="targetPoint" />
            <Array as="points">
              <mxPoint x="1420" y="310" />
              <mxPoint x="1420" y="100" />
              <mxPoint x="1295" y="100" />
            </Array>
          </mxGeometry>
        </mxCell>
        <mxCell id="O_epTvdXiK4w9YHE_06F-73" value="" style="edgeStyle=orthogonalEdgeStyle;rounded=0;orthogonalLoop=1;jettySize=auto;html=1;" edge="1" parent="1" source="O_epTvdXiK4w9YHE_06F-69" target="O_epTvdXiK4w9YHE_06F-72">
          <mxGeometry relative="1" as="geometry" />
        </mxCell>
        <mxCell id="O_epTvdXiK4w9YHE_06F-69" value="sreg = 0xAA" style="shape=hexagon;perimeter=hexagonPerimeter2;whiteSpace=wrap;html=1;fixedSize=1;fillColor=#ffe6cc;strokeColor=#d79b00;rounded=0;" vertex="1" parent="1">
          <mxGeometry x="1235" y="270" width="120" height="80" as="geometry" />
        </mxCell>
        <mxCell id="O_epTvdXiK4w9YHE_06F-76" value="" style="edgeStyle=orthogonalEdgeStyle;rounded=0;orthogonalLoop=1;jettySize=auto;html=1;" edge="1" parent="1" source="O_epTvdXiK4w9YHE_06F-72" target="O_epTvdXiK4w9YHE_06F-75">
          <mxGeometry relative="1" as="geometry" />
        </mxCell>
        <mxCell id="O_epTvdXiK4w9YHE_06F-72" value="count &amp;lt;= count + 1" style="rounded=0;whiteSpace=wrap;html=1;fillColor=#d5e8d4;strokeColor=#82b366;" vertex="1" parent="1">
          <mxGeometry x="1235" y="440" width="120" height="60" as="geometry" />
        </mxCell>
        <mxCell id="O_epTvdXiK4w9YHE_06F-74" value="&lt;div&gt;Default:&lt;/div&gt;&lt;div&gt;count &amp;lt;= 0&lt;br&gt;&lt;/div&gt;&lt;div&gt;&lt;br&gt;&lt;/div&gt;&lt;div&gt;sreg &amp;lt;= sreg(6 downto 0) &amp;amp; sdata&lt;br&gt;&lt;/div&gt;" style="text;html=1;align=center;verticalAlign=middle;resizable=0;points=[];autosize=1;strokeColor=none;fillColor=none;" vertex="1" parent="1">
          <mxGeometry x="1440" y="88" width="200" height="70" as="geometry" />
        </mxCell>
        <mxCell id="O_epTvdXiK4w9YHE_06F-79" value="" style="edgeStyle=orthogonalEdgeStyle;rounded=0;orthogonalLoop=1;jettySize=auto;html=1;" edge="1" parent="1" source="O_epTvdXiK4w9YHE_06F-75" target="O_epTvdXiK4w9YHE_06F-78">
          <mxGeometry relative="1" as="geometry" />
        </mxCell>
        <mxCell id="O_epTvdXiK4w9YHE_06F-87" style="edgeStyle=orthogonalEdgeStyle;rounded=0;orthogonalLoop=1;jettySize=auto;html=1;" edge="1" parent="1" source="O_epTvdXiK4w9YHE_06F-75">
          <mxGeometry relative="1" as="geometry">
            <mxPoint x="1300" y="380" as="targetPoint" />
            <Array as="points">
              <mxPoint x="1400" y="610" />
              <mxPoint x="1400" y="380" />
            </Array>
          </mxGeometry>
        </mxCell>
        <mxCell id="O_epTvdXiK4w9YHE_06F-75" value="count = 6" style="shape=hexagon;perimeter=hexagonPerimeter2;whiteSpace=wrap;html=1;fixedSize=1;fillColor=#ffe6cc;strokeColor=#d79b00;rounded=0;" vertex="1" parent="1">
          <mxGeometry x="1235" y="570" width="120" height="80" as="geometry" />
        </mxCell>
        <mxCell id="O_epTvdXiK4w9YHE_06F-80" style="edgeStyle=orthogonalEdgeStyle;rounded=0;orthogonalLoop=1;jettySize=auto;html=1;" edge="1" parent="1" source="O_epTvdXiK4w9YHE_06F-78">
          <mxGeometry relative="1" as="geometry">
            <mxPoint x="1420" y="310" as="targetPoint" />
          </mxGeometry>
        </mxCell>
        <mxCell id="O_epTvdXiK4w9YHE_06F-78" value="&lt;div&gt;dout &amp;lt;= sreg&lt;/div&gt;&lt;div&gt;dvalid &lt;br&gt;&lt;/div&gt;" style="whiteSpace=wrap;html=1;fillColor=#d5e8d4;strokeColor=#82b366;rounded=0;" vertex="1" parent="1">
          <mxGeometry x="1235" y="740" width="120" height="60" as="geometry" />
        </mxCell>
        <mxCell id="O_epTvdXiK4w9YHE_06F-81" value="" style="swimlane;startSize=0;dashed=1;" vertex="1" parent="1">
          <mxGeometry x="1195" y="110" width="200" height="250" as="geometry" />
        </mxCell>
        <mxCell id="O_epTvdXiK4w9YHE_06F-84" value="s_idle" style="text;html=1;align=center;verticalAlign=middle;resizable=0;points=[];autosize=1;strokeColor=none;fillColor=none;" vertex="1" parent="O_epTvdXiK4w9YHE_06F-81">
          <mxGeometry x="10" width="50" height="30" as="geometry" />
        </mxCell>
        <mxCell id="O_epTvdXiK4w9YHE_06F-88" value="F" style="text;html=1;align=center;verticalAlign=middle;resizable=0;points=[];autosize=1;strokeColor=none;fillColor=none;" vertex="1" parent="O_epTvdXiK4w9YHE_06F-81">
          <mxGeometry x="160" y="168" width="30" height="30" as="geometry" />
        </mxCell>
        <mxCell id="O_epTvdXiK4w9YHE_06F-82" value="" style="swimlane;startSize=0;dashed=1;" vertex="1" parent="1">
          <mxGeometry x="1195" y="410" width="175" height="250" as="geometry" />
        </mxCell>
        <mxCell id="O_epTvdXiK4w9YHE_06F-85" value="s_count" style="text;html=1;align=center;verticalAlign=middle;resizable=0;points=[];autosize=1;strokeColor=none;fillColor=none;" vertex="1" parent="O_epTvdXiK4w9YHE_06F-82">
          <mxGeometry x="10" width="70" height="30" as="geometry" />
        </mxCell>
        <mxCell id="O_epTvdXiK4w9YHE_06F-89" value="F" style="text;html=1;align=center;verticalAlign=middle;resizable=0;points=[];autosize=1;strokeColor=none;fillColor=none;" vertex="1" parent="O_epTvdXiK4w9YHE_06F-82">
          <mxGeometry x="145" y="160" width="30" height="30" as="geometry" />
        </mxCell>
        <mxCell id="O_epTvdXiK4w9YHE_06F-83" value="" style="swimlane;startSize=0;dashed=1;" vertex="1" parent="1">
          <mxGeometry x="1195" y="710" width="200" height="130" as="geometry" />
        </mxCell>
        <mxCell id="O_epTvdXiK4w9YHE_06F-86" value="s_valid" style="text;html=1;align=center;verticalAlign=middle;resizable=0;points=[];autosize=1;strokeColor=none;fillColor=none;" vertex="1" parent="O_epTvdXiK4w9YHE_06F-83">
          <mxGeometry x="5" width="60" height="30" as="geometry" />
        </mxCell>
        <mxCell id="O_epTvdXiK4w9YHE_06F-90" value="T" style="text;html=1;align=center;verticalAlign=middle;resizable=0;points=[];autosize=1;strokeColor=none;fillColor=none;" vertex="1" parent="1">
          <mxGeometry x="1290" y="660" width="30" height="30" as="geometry" />
        </mxCell>
        <mxCell id="O_epTvdXiK4w9YHE_06F-91" value="T" style="text;html=1;align=center;verticalAlign=middle;resizable=0;points=[];autosize=1;strokeColor=none;fillColor=none;" vertex="1" parent="1">
          <mxGeometry x="1267.5" y="360" width="30" height="30" as="geometry" />
        </mxCell>
        <mxCell id="O_epTvdXiK4w9YHE_06F-92" value="" style="endArrow=none;html=1;rounded=0;" edge="1" parent="1">
          <mxGeometry width="50" height="50" relative="1" as="geometry">
            <mxPoint x="1638.82" y="1001.1800000000001" as="sourcePoint" />
            <mxPoint x="1638.82" y="-39.99647058823541" as="targetPoint" />
          </mxGeometry>
        </mxCell>
        <mxCell id="O_epTvdXiK4w9YHE_06F-94" style="edgeStyle=orthogonalEdgeStyle;rounded=0;orthogonalLoop=1;jettySize=auto;html=1;startArrow=classic;startFill=1;endArrow=none;endFill=0;" edge="1" parent="1" source="O_epTvdXiK4w9YHE_06F-93">
          <mxGeometry relative="1" as="geometry">
            <mxPoint x="1840" y="40" as="targetPoint" />
          </mxGeometry>
        </mxCell>
        <mxCell id="O_epTvdXiK4w9YHE_06F-98" value="" style="edgeStyle=orthogonalEdgeStyle;rounded=0;orthogonalLoop=1;jettySize=auto;html=1;" edge="1" parent="1" source="O_epTvdXiK4w9YHE_06F-93" target="O_epTvdXiK4w9YHE_06F-97">
          <mxGeometry relative="1" as="geometry" />
        </mxCell>
        <mxCell id="O_epTvdXiK4w9YHE_06F-93" value="" style="rounded=0;whiteSpace=wrap;html=1;fillColor=#d5e8d4;strokeColor=#82b366;" vertex="1" parent="1">
          <mxGeometry x="1780" y="140" width="120" height="60" as="geometry" />
        </mxCell>
        <mxCell id="O_epTvdXiK4w9YHE_06F-95" value="read_op" style="text;html=1;align=center;verticalAlign=middle;resizable=0;points=[];autosize=1;strokeColor=none;fillColor=none;" vertex="1" parent="1">
          <mxGeometry x="1745" y="108" width="70" height="30" as="geometry" />
        </mxCell>
        <mxCell id="O_epTvdXiK4w9YHE_06F-96" value="&lt;div&gt;Default:&lt;/div&gt;&lt;div&gt;load &amp;lt;= &#39;0&#39;&lt;/div&gt;&lt;div&gt;valid &amp;lt;= &#39;0&#39;&lt;/div&gt;&lt;div&gt;reset_count &amp;lt;= SS&lt;/div&gt;&lt;div&gt;&lt;br&gt;&lt;/div&gt;" style="text;html=1;align=center;verticalAlign=middle;resizable=0;points=[];autosize=1;strokeColor=none;fillColor=none;" vertex="1" parent="1">
          <mxGeometry x="1640" y="25" width="120" height="90" as="geometry" />
        </mxCell>
        <mxCell id="O_epTvdXiK4w9YHE_06F-102" value="" style="edgeStyle=orthogonalEdgeStyle;rounded=0;orthogonalLoop=1;jettySize=auto;html=1;" edge="1" parent="1" source="O_epTvdXiK4w9YHE_06F-97" target="O_epTvdXiK4w9YHE_06F-101">
          <mxGeometry relative="1" as="geometry" />
        </mxCell>
        <mxCell id="O_epTvdXiK4w9YHE_06F-108" style="edgeStyle=orthogonalEdgeStyle;rounded=0;orthogonalLoop=1;jettySize=auto;html=1;" edge="1" parent="1" source="O_epTvdXiK4w9YHE_06F-97">
          <mxGeometry relative="1" as="geometry">
            <mxPoint x="1840" y="90" as="targetPoint" />
            <Array as="points">
              <mxPoint x="2270" y="310" />
              <mxPoint x="2270" y="90" />
            </Array>
          </mxGeometry>
        </mxCell>
        <mxCell id="O_epTvdXiK4w9YHE_06F-97" value="halfcount " style="shape=hexagon;perimeter=hexagonPerimeter2;whiteSpace=wrap;html=1;fixedSize=1;fillColor=#ffe6cc;strokeColor=#d79b00;rounded=0;" vertex="1" parent="1">
          <mxGeometry x="1780" y="270" width="120" height="80" as="geometry" />
        </mxCell>
        <mxCell id="O_epTvdXiK4w9YHE_06F-121" value="" style="edgeStyle=orthogonalEdgeStyle;rounded=0;orthogonalLoop=1;jettySize=auto;html=1;" edge="1" parent="1" source="O_epTvdXiK4w9YHE_06F-99" target="O_epTvdXiK4w9YHE_06F-120">
          <mxGeometry relative="1" as="geometry" />
        </mxCell>
        <mxCell id="O_epTvdXiK4w9YHE_06F-99" value="load " style="whiteSpace=wrap;html=1;fillColor=#f8cecc;strokeColor=#b85450;rounded=1;arcSize=50;" vertex="1" parent="1">
          <mxGeometry x="1780" y="490" width="120" height="60" as="geometry" />
        </mxCell>
        <mxCell id="O_epTvdXiK4w9YHE_06F-103" style="edgeStyle=orthogonalEdgeStyle;rounded=0;orthogonalLoop=1;jettySize=auto;html=1;entryX=0.5;entryY=0;entryDx=0;entryDy=0;" edge="1" parent="1" source="O_epTvdXiK4w9YHE_06F-101" target="O_epTvdXiK4w9YHE_06F-99">
          <mxGeometry relative="1" as="geometry" />
        </mxCell>
        <mxCell id="O_epTvdXiK4w9YHE_06F-113" style="edgeStyle=orthogonalEdgeStyle;rounded=0;orthogonalLoop=1;jettySize=auto;html=1;entryX=0;entryY=0.5;entryDx=0;entryDy=0;" edge="1" parent="1" source="O_epTvdXiK4w9YHE_06F-101" target="O_epTvdXiK4w9YHE_06F-111">
          <mxGeometry relative="1" as="geometry" />
        </mxCell>
        <mxCell id="O_epTvdXiK4w9YHE_06F-101" value="data = OP_FETCH" style="shape=hexagon;perimeter=hexagonPerimeter2;whiteSpace=wrap;html=1;fixedSize=1;fillColor=#ffe6cc;strokeColor=#d79b00;rounded=0;" vertex="1" parent="1">
          <mxGeometry x="1780" y="380" width="120" height="80" as="geometry" />
        </mxCell>
        <mxCell id="O_epTvdXiK4w9YHE_06F-107" value="" style="edgeStyle=orthogonalEdgeStyle;rounded=0;orthogonalLoop=1;jettySize=auto;html=1;" edge="1" parent="1" source="O_epTvdXiK4w9YHE_06F-104" target="O_epTvdXiK4w9YHE_06F-106">
          <mxGeometry relative="1" as="geometry" />
        </mxCell>
        <mxCell id="O_epTvdXiK4w9YHE_06F-119" style="edgeStyle=orthogonalEdgeStyle;rounded=0;orthogonalLoop=1;jettySize=auto;html=1;" edge="1" parent="1" source="O_epTvdXiK4w9YHE_06F-104">
          <mxGeometry relative="1" as="geometry">
            <mxPoint x="1850" y="620" as="targetPoint" />
            <Array as="points">
              <mxPoint x="2260" y="420" />
              <mxPoint x="2260" y="620" />
            </Array>
          </mxGeometry>
        </mxCell>
        <mxCell id="O_epTvdXiK4w9YHE_06F-104" value="data = OP_NOP" style="shape=hexagon;perimeter=hexagonPerimeter2;whiteSpace=wrap;html=1;fixedSize=1;fillColor=#ffe6cc;strokeColor=#d79b00;rounded=0;" vertex="1" parent="1">
          <mxGeometry x="2080" y="380" width="120" height="80" as="geometry" />
        </mxCell>
        <mxCell id="O_epTvdXiK4w9YHE_06F-109" style="edgeStyle=orthogonalEdgeStyle;rounded=0;orthogonalLoop=1;jettySize=auto;html=1;" edge="1" parent="1" source="O_epTvdXiK4w9YHE_06F-106">
          <mxGeometry relative="1" as="geometry">
            <mxPoint x="2270" y="110" as="targetPoint" />
            <Array as="points">
              <mxPoint x="2140" y="580" />
              <mxPoint x="2300" y="580" />
              <mxPoint x="2300" y="110" />
            </Array>
          </mxGeometry>
        </mxCell>
        <mxCell id="O_epTvdXiK4w9YHE_06F-106" value="reset_count" style="rounded=1;whiteSpace=wrap;html=1;fillColor=#f8cecc;strokeColor=#b85450;arcSize=50;" vertex="1" parent="1">
          <mxGeometry x="2080" y="490" width="120" height="60" as="geometry" />
        </mxCell>
        <mxCell id="O_epTvdXiK4w9YHE_06F-114" style="edgeStyle=orthogonalEdgeStyle;rounded=0;orthogonalLoop=1;jettySize=auto;html=1;exitX=1;exitY=0.5;exitDx=0;exitDy=0;entryX=0;entryY=0.5;entryDx=0;entryDy=0;" edge="1" parent="1" source="O_epTvdXiK4w9YHE_06F-111" target="O_epTvdXiK4w9YHE_06F-104">
          <mxGeometry relative="1" as="geometry" />
        </mxCell>
        <mxCell id="O_epTvdXiK4w9YHE_06F-117" value="" style="edgeStyle=orthogonalEdgeStyle;rounded=0;orthogonalLoop=1;jettySize=auto;html=1;" edge="1" parent="1" source="O_epTvdXiK4w9YHE_06F-111" target="O_epTvdXiK4w9YHE_06F-116">
          <mxGeometry relative="1" as="geometry" />
        </mxCell>
        <mxCell id="O_epTvdXiK4w9YHE_06F-111" value="data = OP_PUT" style="shape=hexagon;perimeter=hexagonPerimeter2;whiteSpace=wrap;html=1;fixedSize=1;fillColor=#ffe6cc;strokeColor=#d79b00;rounded=0;" vertex="1" parent="1">
          <mxGeometry x="1940" y="380" width="120" height="80" as="geometry" />
        </mxCell>
        <mxCell id="O_epTvdXiK4w9YHE_06F-125" value="" style="edgeStyle=orthogonalEdgeStyle;rounded=0;orthogonalLoop=1;jettySize=auto;html=1;" edge="1" parent="1" source="O_epTvdXiK4w9YHE_06F-116" target="O_epTvdXiK4w9YHE_06F-124">
          <mxGeometry relative="1" as="geometry" />
        </mxCell>
        <mxCell id="O_epTvdXiK4w9YHE_06F-116" value="" style="rounded=0;whiteSpace=wrap;html=1;fillColor=#d5e8d4;strokeColor=#82b366;" vertex="1" parent="1">
          <mxGeometry x="2050" y="690" width="120" height="60" as="geometry" />
        </mxCell>
        <mxCell id="O_epTvdXiK4w9YHE_06F-118" value="put" style="text;html=1;align=center;verticalAlign=middle;resizable=0;points=[];autosize=1;strokeColor=none;fillColor=none;" vertex="1" parent="1">
          <mxGeometry x="2060" y="670" width="40" height="30" as="geometry" />
        </mxCell>
        <mxCell id="O_epTvdXiK4w9YHE_06F-132" style="edgeStyle=orthogonalEdgeStyle;rounded=0;orthogonalLoop=1;jettySize=auto;html=1;entryX=0.5;entryY=0;entryDx=0;entryDy=0;" edge="1" parent="1" source="O_epTvdXiK4w9YHE_06F-120" target="O_epTvdXiK4w9YHE_06F-130">
          <mxGeometry relative="1" as="geometry" />
        </mxCell>
        <mxCell id="O_epTvdXiK4w9YHE_06F-120" value="" style="whiteSpace=wrap;html=1;fillColor=#d5e8d4;strokeColor=#82b366;rounded=0;" vertex="1" parent="1">
          <mxGeometry x="1780" y="690" width="120" height="60" as="geometry" />
        </mxCell>
        <mxCell id="O_epTvdXiK4w9YHE_06F-122" value="transmit" style="text;html=1;align=center;verticalAlign=middle;resizable=0;points=[];autosize=1;strokeColor=none;fillColor=none;" vertex="1" parent="1">
          <mxGeometry x="1760" y="670" width="70" height="30" as="geometry" />
        </mxCell>
        <mxCell id="O_epTvdXiK4w9YHE_06F-123" value="" style="swimlane;startSize=0;dashed=1;" vertex="1" parent="1">
          <mxGeometry x="1750" y="108" width="490" height="462" as="geometry" />
        </mxCell>
        <mxCell id="O_epTvdXiK4w9YHE_06F-127" value="" style="edgeStyle=orthogonalEdgeStyle;rounded=0;orthogonalLoop=1;jettySize=auto;html=1;" edge="1" parent="1" source="O_epTvdXiK4w9YHE_06F-124" target="O_epTvdXiK4w9YHE_06F-126">
          <mxGeometry relative="1" as="geometry" />
        </mxCell>
        <mxCell id="O_epTvdXiK4w9YHE_06F-139" style="edgeStyle=orthogonalEdgeStyle;rounded=0;orthogonalLoop=1;jettySize=auto;html=1;" edge="1" parent="1" source="O_epTvdXiK4w9YHE_06F-124">
          <mxGeometry relative="1" as="geometry">
            <mxPoint x="2110" y="650" as="targetPoint" />
            <Array as="points">
              <mxPoint x="2280" y="830" />
              <mxPoint x="2280" y="650" />
            </Array>
          </mxGeometry>
        </mxCell>
        <mxCell id="O_epTvdXiK4w9YHE_06F-124" value="min_count" style="shape=hexagon;perimeter=hexagonPerimeter2;whiteSpace=wrap;html=1;fixedSize=1;fillColor=#ffe6cc;strokeColor=#d79b00;rounded=0;" vertex="1" parent="1">
          <mxGeometry x="2050" y="790" width="120" height="80" as="geometry" />
        </mxCell>
        <mxCell id="O_epTvdXiK4w9YHE_06F-128" style="edgeStyle=orthogonalEdgeStyle;rounded=0;orthogonalLoop=1;jettySize=auto;html=1;" edge="1" parent="1" source="O_epTvdXiK4w9YHE_06F-126">
          <mxGeometry relative="1" as="geometry">
            <mxPoint x="2300" y="520" as="targetPoint" />
            <Array as="points">
              <mxPoint x="2110" y="1050" />
              <mxPoint x="2300" y="1050" />
            </Array>
          </mxGeometry>
        </mxCell>
        <mxCell id="O_epTvdXiK4w9YHE_06F-126" value="valid" style="whiteSpace=wrap;html=1;fillColor=#f8cecc;strokeColor=#b85450;rounded=1;arcSize=50;" vertex="1" parent="1">
          <mxGeometry x="2050" y="960" width="120" height="60" as="geometry" />
        </mxCell>
        <mxCell id="O_epTvdXiK4w9YHE_06F-129" value="" style="swimlane;startSize=0;dashed=1;" vertex="1" parent="1">
          <mxGeometry x="2020" y="665" width="200" height="365" as="geometry" />
        </mxCell>
        <mxCell id="O_epTvdXiK4w9YHE_06F-134" value="" style="edgeStyle=orthogonalEdgeStyle;rounded=0;orthogonalLoop=1;jettySize=auto;html=1;endArrow=none;endFill=0;" edge="1" parent="1" source="O_epTvdXiK4w9YHE_06F-130">
          <mxGeometry relative="1" as="geometry">
            <mxPoint x="1840" y="1000" as="targetPoint" />
          </mxGeometry>
        </mxCell>
        <mxCell id="O_epTvdXiK4w9YHE_06F-140" style="edgeStyle=orthogonalEdgeStyle;rounded=0;orthogonalLoop=1;jettySize=auto;html=1;" edge="1" parent="1" source="O_epTvdXiK4w9YHE_06F-130">
          <mxGeometry relative="1" as="geometry">
            <mxPoint x="1850" y="640" as="targetPoint" />
            <Array as="points">
              <mxPoint x="1990" y="840" />
              <mxPoint x="1990" y="640" />
            </Array>
          </mxGeometry>
        </mxCell>
        <mxCell id="O_epTvdXiK4w9YHE_06F-130" value="min_count" style="shape=hexagon;perimeter=hexagonPerimeter2;whiteSpace=wrap;html=1;fixedSize=1;fillColor=#ffe6cc;strokeColor=#d79b00;rounded=0;" vertex="1" parent="1">
          <mxGeometry x="1780" y="800" width="120" height="80" as="geometry" />
        </mxCell>
        <mxCell id="O_epTvdXiK4w9YHE_06F-136" style="edgeStyle=orthogonalEdgeStyle;rounded=0;orthogonalLoop=1;jettySize=auto;html=1;" edge="1" parent="1">
          <mxGeometry relative="1" as="geometry">
            <mxPoint x="2300" y="990" as="targetPoint" />
            <mxPoint x="1840" y="990" as="sourcePoint" />
            <Array as="points">
              <mxPoint x="1840" y="1060" />
              <mxPoint x="2300" y="1060" />
            </Array>
          </mxGeometry>
        </mxCell>
        <mxCell id="O_epTvdXiK4w9YHE_06F-135" value="" style="swimlane;startSize=0;dashed=1;" vertex="1" parent="1">
          <mxGeometry x="1750" y="670" width="200" height="340" as="geometry" />
        </mxCell>
        <mxCell id="O_epTvdXiK4w9YHE_06F-138" value="&lt;font style=&quot;font-size: 20px;&quot;&gt;2020 - FSM&lt;br&gt;&lt;/font&gt;" style="text;html=1;align=center;verticalAlign=middle;resizable=0;points=[];autosize=1;strokeColor=none;fillColor=none;" vertex="1" parent="1">
          <mxGeometry x="1880" y="20" width="130" height="40" as="geometry" />
        </mxCell>
        <mxCell id="O_epTvdXiK4w9YHE_06F-141" value="SS" style="text;html=1;align=center;verticalAlign=middle;resizable=0;points=[];autosize=1;strokeColor=none;fillColor=none;" vertex="1" parent="1">
          <mxGeometry x="1850" y="48" width="40" height="30" as="geometry" />
        </mxCell>
        <mxCell id="O_epTvdXiK4w9YHE_06F-142" value="&lt;font style=&quot;font-size: 20px;&quot;&gt;2018 - FSM&lt;br&gt;&lt;/font&gt;" style="text;html=1;align=center;verticalAlign=middle;resizable=0;points=[];autosize=1;strokeColor=none;fillColor=none;" vertex="1" parent="1">
          <mxGeometry x="2740" y="60" width="130" height="40" as="geometry" />
        </mxCell>
        <mxCell id="O_epTvdXiK4w9YHE_06F-145" style="edgeStyle=orthogonalEdgeStyle;rounded=0;orthogonalLoop=1;jettySize=auto;html=1;startArrow=classic;startFill=1;endArrow=none;endFill=0;" edge="1" parent="1" source="O_epTvdXiK4w9YHE_06F-143">
          <mxGeometry relative="1" as="geometry">
            <mxPoint x="2800" y="110" as="targetPoint" />
          </mxGeometry>
        </mxCell>
        <mxCell id="O_epTvdXiK4w9YHE_06F-148" value="" style="edgeStyle=orthogonalEdgeStyle;rounded=0;orthogonalLoop=1;jettySize=auto;html=1;" edge="1" parent="1" source="O_epTvdXiK4w9YHE_06F-143" target="O_epTvdXiK4w9YHE_06F-147">
          <mxGeometry relative="1" as="geometry" />
        </mxCell>
        <mxCell id="O_epTvdXiK4w9YHE_06F-143" value="" style="rounded=0;whiteSpace=wrap;html=1;fillColor=#d5e8d4;strokeColor=#82b366;" vertex="1" parent="1">
          <mxGeometry x="2740" y="163" width="120" height="60" as="geometry" />
        </mxCell>
        <mxCell id="O_epTvdXiK4w9YHE_06F-146" value="&lt;div&gt;Default:&lt;/div&gt;&lt;div&gt;z &amp;lt;= &#39;0&#39;&lt;br&gt;&lt;/div&gt;&lt;div&gt;x_seq &amp;lt;= x_seq(1 downto 0) &amp;amp; x&lt;/div&gt;&lt;div&gt;&lt;br&gt;&lt;/div&gt;" style="text;html=1;align=center;verticalAlign=middle;resizable=0;points=[];autosize=1;strokeColor=none;fillColor=none;" vertex="1" parent="1">
          <mxGeometry x="2470" y="108" width="200" height="70" as="geometry" />
        </mxCell>
        <mxCell id="O_epTvdXiK4w9YHE_06F-151" style="edgeStyle=orthogonalEdgeStyle;rounded=0;orthogonalLoop=1;jettySize=auto;html=1;" edge="1" parent="1" source="O_epTvdXiK4w9YHE_06F-147">
          <mxGeometry relative="1" as="geometry">
            <mxPoint x="2800" y="130" as="targetPoint" />
            <Array as="points">
              <mxPoint x="2960" y="290" />
              <mxPoint x="2960" y="120" />
              <mxPoint x="2800" y="120" />
            </Array>
          </mxGeometry>
        </mxCell>
        <mxCell id="O_epTvdXiK4w9YHE_06F-153" value="rst" style="text;html=1;align=center;verticalAlign=middle;resizable=0;points=[];autosize=1;strokeColor=none;fillColor=none;" vertex="1" parent="1">
          <mxGeometry x="2800" y="93" width="40" height="30" as="geometry" />
        </mxCell>
        <mxCell id="O_epTvdXiK4w9YHE_06F-154" value="" style="swimlane;startSize=0;dashed=1;" vertex="1" parent="1">
          <mxGeometry x="2705" y="130" width="200" height="350" as="geometry" />
        </mxCell>
        <mxCell id="O_epTvdXiK4w9YHE_06F-160" value="" style="edgeStyle=orthogonalEdgeStyle;rounded=0;orthogonalLoop=1;jettySize=auto;html=1;" edge="1" parent="O_epTvdXiK4w9YHE_06F-154" source="O_epTvdXiK4w9YHE_06F-147" target="O_epTvdXiK4w9YHE_06F-159">
          <mxGeometry relative="1" as="geometry" />
        </mxCell>
        <mxCell id="O_epTvdXiK4w9YHE_06F-147" value="x_seq = &quot;101&quot;" style="shape=hexagon;perimeter=hexagonPerimeter2;whiteSpace=wrap;html=1;fixedSize=1;fillColor=#ffe6cc;strokeColor=#d79b00;rounded=0;" vertex="1" parent="O_epTvdXiK4w9YHE_06F-154">
          <mxGeometry x="35" y="120" width="120" height="80" as="geometry" />
        </mxCell>
        <mxCell id="O_epTvdXiK4w9YHE_06F-161" style="edgeStyle=orthogonalEdgeStyle;rounded=0;orthogonalLoop=1;jettySize=auto;html=1;" edge="1" parent="O_epTvdXiK4w9YHE_06F-154" source="O_epTvdXiK4w9YHE_06F-159">
          <mxGeometry relative="1" as="geometry">
            <mxPoint x="255" y="160" as="targetPoint" />
            <Array as="points">
              <mxPoint x="95" y="390" />
              <mxPoint x="256" y="390" />
              <mxPoint x="256" y="160" />
            </Array>
          </mxGeometry>
        </mxCell>
        <mxCell id="O_epTvdXiK4w9YHE_06F-159" value="z" style="rounded=1;whiteSpace=wrap;html=1;fillColor=#f8cecc;strokeColor=#b85450;arcSize=50;" vertex="1" parent="O_epTvdXiK4w9YHE_06F-154">
          <mxGeometry x="35" y="280" width="120" height="60" as="geometry" />
        </mxCell>
        <mxCell id="O_epTvdXiK4w9YHE_06F-156" value="s_idle" style="text;html=1;align=center;verticalAlign=middle;resizable=0;points=[];autosize=1;strokeColor=none;fillColor=none;" vertex="1" parent="1">
          <mxGeometry x="2725" y="128" width="50" height="30" as="geometry" />
        </mxCell>
        <mxCell id="O_epTvdXiK4w9YHE_06F-162" value="reset" style="text;html=1;align=center;verticalAlign=middle;resizable=0;points=[];autosize=1;strokeColor=none;fillColor=none;" vertex="1" parent="1">
          <mxGeometry x="775" y="78" width="50" height="30" as="geometry" />
        </mxCell>
        <mxCell id="O_epTvdXiK4w9YHE_06F-163" style="edgeStyle=orthogonalEdgeStyle;rounded=0;orthogonalLoop=1;jettySize=auto;html=1;startArrow=classic;startFill=1;endArrow=none;endFill=0;" edge="1" source="O_epTvdXiK4w9YHE_06F-165" parent="1">
          <mxGeometry relative="1" as="geometry">
            <mxPoint x="2800" y="620" as="targetPoint" />
          </mxGeometry>
        </mxCell>
        <mxCell id="O_epTvdXiK4w9YHE_06F-164" value="" style="edgeStyle=orthogonalEdgeStyle;rounded=0;orthogonalLoop=1;jettySize=auto;html=1;" edge="1" source="O_epTvdXiK4w9YHE_06F-165" target="O_epTvdXiK4w9YHE_06F-170" parent="1">
          <mxGeometry relative="1" as="geometry" />
        </mxCell>
        <mxCell id="O_epTvdXiK4w9YHE_06F-165" value="" style="rounded=0;whiteSpace=wrap;html=1;fillColor=#d5e8d4;strokeColor=#82b366;" vertex="1" parent="1">
          <mxGeometry x="2740" y="673" width="120" height="60" as="geometry" />
        </mxCell>
        <mxCell id="O_epTvdXiK4w9YHE_06F-166" style="edgeStyle=orthogonalEdgeStyle;rounded=0;orthogonalLoop=1;jettySize=auto;html=1;" edge="1" source="O_epTvdXiK4w9YHE_06F-170" parent="1">
          <mxGeometry relative="1" as="geometry">
            <mxPoint x="2800" y="640" as="targetPoint" />
            <Array as="points">
              <mxPoint x="2960" y="800" />
              <mxPoint x="2960" y="630" />
              <mxPoint x="2800" y="630" />
            </Array>
          </mxGeometry>
        </mxCell>
        <mxCell id="O_epTvdXiK4w9YHE_06F-167" value="rst" style="text;html=1;align=center;verticalAlign=middle;resizable=0;points=[];autosize=1;strokeColor=none;fillColor=none;" vertex="1" parent="1">
          <mxGeometry x="2800" y="603" width="40" height="30" as="geometry" />
        </mxCell>
        <mxCell id="O_epTvdXiK4w9YHE_06F-168" value="" style="swimlane;startSize=0;dashed=1;" vertex="1" parent="1">
          <mxGeometry x="2705" y="640" width="200" height="230" as="geometry" />
        </mxCell>
        <mxCell id="O_epTvdXiK4w9YHE_06F-169" value="" style="edgeStyle=orthogonalEdgeStyle;rounded=0;orthogonalLoop=1;jettySize=auto;html=1;" edge="1" parent="O_epTvdXiK4w9YHE_06F-168" source="O_epTvdXiK4w9YHE_06F-170">
          <mxGeometry relative="1" as="geometry">
            <mxPoint x="95" y="280" as="targetPoint" />
          </mxGeometry>
        </mxCell>
        <mxCell id="O_epTvdXiK4w9YHE_06F-170" value="x" style="shape=hexagon;perimeter=hexagonPerimeter2;whiteSpace=wrap;html=1;fixedSize=1;fillColor=#ffe6cc;strokeColor=#d79b00;rounded=0;" vertex="1" parent="O_epTvdXiK4w9YHE_06F-168">
          <mxGeometry x="35" y="120" width="120" height="80" as="geometry" />
        </mxCell>
        <mxCell id="O_epTvdXiK4w9YHE_06F-173" value="s_1" style="text;html=1;align=center;verticalAlign=middle;resizable=0;points=[];autosize=1;strokeColor=none;fillColor=none;" vertex="1" parent="1">
          <mxGeometry x="2730" y="638" width="40" height="30" as="geometry" />
        </mxCell>
        <mxCell id="O_epTvdXiK4w9YHE_06F-175" value="" style="edgeStyle=orthogonalEdgeStyle;rounded=0;orthogonalLoop=1;jettySize=auto;html=1;" edge="1" source="O_epTvdXiK4w9YHE_06F-176" target="O_epTvdXiK4w9YHE_06F-181" parent="1">
          <mxGeometry relative="1" as="geometry" />
        </mxCell>
        <mxCell id="O_epTvdXiK4w9YHE_06F-176" value="" style="rounded=0;whiteSpace=wrap;html=1;fillColor=#d5e8d4;strokeColor=#82b366;" vertex="1" parent="1">
          <mxGeometry x="2735" y="925" width="120" height="60" as="geometry" />
        </mxCell>
        <mxCell id="O_epTvdXiK4w9YHE_06F-179" value="" style="swimlane;startSize=0;dashed=1;" vertex="1" parent="1">
          <mxGeometry x="2700" y="892" width="200" height="230" as="geometry" />
        </mxCell>
        <mxCell id="O_epTvdXiK4w9YHE_06F-180" value="" style="edgeStyle=orthogonalEdgeStyle;rounded=0;orthogonalLoop=1;jettySize=auto;html=1;" edge="1" parent="O_epTvdXiK4w9YHE_06F-179" source="O_epTvdXiK4w9YHE_06F-181">
          <mxGeometry relative="1" as="geometry">
            <mxPoint x="95" y="280" as="targetPoint" />
          </mxGeometry>
        </mxCell>
        <mxCell id="O_epTvdXiK4w9YHE_06F-183" style="edgeStyle=orthogonalEdgeStyle;rounded=0;orthogonalLoop=1;jettySize=auto;html=1;" edge="1" parent="O_epTvdXiK4w9YHE_06F-179" source="O_epTvdXiK4w9YHE_06F-181">
          <mxGeometry relative="1" as="geometry">
            <mxPoint x="100" y="-2" as="targetPoint" />
            <Array as="points">
              <mxPoint x="240" y="160" />
              <mxPoint x="240" y="-12" />
              <mxPoint x="100" y="-12" />
            </Array>
          </mxGeometry>
        </mxCell>
        <mxCell id="O_epTvdXiK4w9YHE_06F-181" value="x = &#39;0&#39;" style="shape=hexagon;perimeter=hexagonPerimeter2;whiteSpace=wrap;html=1;fixedSize=1;fillColor=#ffe6cc;strokeColor=#d79b00;rounded=0;" vertex="1" parent="O_epTvdXiK4w9YHE_06F-179">
          <mxGeometry x="35" y="120" width="120" height="80" as="geometry" />
        </mxCell>
        <mxCell id="O_epTvdXiK4w9YHE_06F-182" value="s_10" style="text;html=1;align=center;verticalAlign=middle;resizable=0;points=[];autosize=1;strokeColor=none;fillColor=none;" vertex="1" parent="1">
          <mxGeometry x="2720" y="890" width="50" height="30" as="geometry" />
        </mxCell>
        <mxCell id="O_epTvdXiK4w9YHE_06F-185" value="" style="edgeStyle=orthogonalEdgeStyle;rounded=0;orthogonalLoop=1;jettySize=auto;html=1;" edge="1" source="O_epTvdXiK4w9YHE_06F-186" target="O_epTvdXiK4w9YHE_06F-191" parent="1">
          <mxGeometry relative="1" as="geometry" />
        </mxCell>
        <mxCell id="O_epTvdXiK4w9YHE_06F-186" value="" style="rounded=0;whiteSpace=wrap;html=1;fillColor=#d5e8d4;strokeColor=#82b366;" vertex="1" parent="1">
          <mxGeometry x="2730" y="1175" width="120" height="60" as="geometry" />
        </mxCell>
        <mxCell id="O_epTvdXiK4w9YHE_06F-189" value="" style="swimlane;startSize=0;dashed=1;" vertex="1" parent="1">
          <mxGeometry x="2695" y="1142" width="200" height="350" as="geometry" />
        </mxCell>
        <mxCell id="O_epTvdXiK4w9YHE_06F-195" value="" style="edgeStyle=orthogonalEdgeStyle;rounded=0;orthogonalLoop=1;jettySize=auto;html=1;" edge="1" parent="O_epTvdXiK4w9YHE_06F-189" source="O_epTvdXiK4w9YHE_06F-191" target="O_epTvdXiK4w9YHE_06F-194">
          <mxGeometry relative="1" as="geometry" />
        </mxCell>
        <mxCell id="O_epTvdXiK4w9YHE_06F-196" style="edgeStyle=orthogonalEdgeStyle;rounded=0;orthogonalLoop=1;jettySize=auto;html=1;" edge="1" parent="O_epTvdXiK4w9YHE_06F-189" source="O_epTvdXiK4w9YHE_06F-191">
          <mxGeometry relative="1" as="geometry">
            <mxPoint x="265" y="-342" as="targetPoint" />
          </mxGeometry>
        </mxCell>
        <mxCell id="O_epTvdXiK4w9YHE_06F-191" value="x" style="shape=hexagon;perimeter=hexagonPerimeter2;whiteSpace=wrap;html=1;fixedSize=1;fillColor=#ffe6cc;strokeColor=#d79b00;rounded=0;" vertex="1" parent="O_epTvdXiK4w9YHE_06F-189">
          <mxGeometry x="35" y="120" width="120" height="80" as="geometry" />
        </mxCell>
        <mxCell id="O_epTvdXiK4w9YHE_06F-197" style="edgeStyle=orthogonalEdgeStyle;rounded=0;orthogonalLoop=1;jettySize=auto;html=1;" edge="1" parent="O_epTvdXiK4w9YHE_06F-189" source="O_epTvdXiK4w9YHE_06F-194">
          <mxGeometry relative="1" as="geometry">
            <mxPoint x="245" y="-92" as="targetPoint" />
            <Array as="points">
              <mxPoint x="95" y="328" />
              <mxPoint x="245" y="328" />
            </Array>
          </mxGeometry>
        </mxCell>
        <mxCell id="O_epTvdXiK4w9YHE_06F-194" value="z" style="rounded=1;whiteSpace=wrap;html=1;fillColor=#f8cecc;strokeColor=#b85450;arcSize=50;" vertex="1" parent="O_epTvdXiK4w9YHE_06F-189">
          <mxGeometry x="35" y="248" width="120" height="60" as="geometry" />
        </mxCell>
        <mxCell id="O_epTvdXiK4w9YHE_06F-192" value="s_101" style="text;html=1;align=center;verticalAlign=middle;resizable=0;points=[];autosize=1;strokeColor=none;fillColor=none;" vertex="1" parent="1">
          <mxGeometry x="2710" y="1140" width="60" height="30" as="geometry" />
        </mxCell>
      </root>
    </mxGraphModel>
  </diagram>
</mxfile>
